<svg width="16" height="25" viewBox="0 0 16 25" fill="none" xmlns="http://www.w3.org/2000/svg">
    <path d="M0 12.5C0 12.9802 0.204523 13.3898 0.629302 13.7571L12.9007 24.5339C13.2311 24.8446 13.6716 25 14.175 25C15.1976 25 16 24.2938 16 23.3616C16 22.9096 15.7955 22.5 15.4494 22.1893L4.38938 12.5L15.4494 2.81073C15.7955 2.48588 16 2.07627 16 1.62429C16 0.706215 15.1976 0 14.175 0C13.6716 0 13.2311 0.155367 12.9007 0.466102L0.629302 11.2429C0.204523 11.6102 0.0157325 12.0198 0 12.5Z" fill="#7A8087"/>
</svg>
