<svg width="13" height="8" viewBox="0 0 13 8" fill="none" xmlns="http://www.w3.org/2000/svg">
    <path d="M0.392247 1.65505L5.88816 7.01242C5.98469 7.10652 6.11416 7.15918 6.24897 7.15918C6.38377 7.15918 6.51324 7.10652 6.60978 7.01242L12.1078 1.65505C12.1528 1.61122 12.1886 1.55882 12.213 1.50093C12.2374 1.44304 12.25 1.38085 12.25 1.31802C12.25 1.25519 12.2374 1.19299 12.213 1.13511C12.1886 1.07722 12.1528 1.02482 12.1078 0.980986C12.0154 0.890812 11.8915 0.840329 11.7625 0.840329C11.6334 0.840329 11.5095 0.890812 11.4171 0.980986L6.24897 6.0189L1.08182 0.980986C0.989547 0.891121 0.865835 0.840833 0.737033 0.840833C0.608231 0.840833 0.484519 0.891121 0.392247 0.980986C0.34723 1.02482 0.311449 1.07722 0.287018 1.13511C0.262587 1.19299 0.25 1.25519 0.25 1.31802C0.25 1.38085 0.262587 1.44304 0.287018 1.50093C0.311449 1.55882 0.34723 1.61122 0.392247 1.65505Z" fill="#C8232B"/>
</svg>
