<svg width="24" height="18" viewBox="0 0 24 18" fill="none" xmlns="http://www.w3.org/2000/svg">
    <path d="M11.2301 18H10.8301C10.6101 18 10.4601 18 10.3201 18C9.92008 18 9.52007 17.96 9.12007 17.9C8.69007 17.83 8.28009 17.69 7.89009 17.49C7.51009 17.3 7.16008 17.04 6.85008 16.74C6.83008 16.72 6.81008 16.7 6.76008 16.65C6.64008 16.53 6.55009 16.45 6.42009 16.32C6.32009 16.22 6.24006 16.14 6.08006 15.98L3.80006 13.7C3.72006 13.63 3.68007 13.59 3.62007 13.52C3.54007 13.44 3.49009 13.39 3.39009 13.29L1.31007 11.21L1.22007 11.12L1.12007 11.02C1.04007 10.94 0.990065 10.89 0.960065 10.85C0.790065 10.68 0.620075 10.5 0.470074 10.31C0.330074 10.16 0.210078 9.97999 0.130078 9.78999L0.110059 9.73C-0.0399414 9.27 -0.0399414 8.77 0.110059 8.3L0.130078 8.24001C0.210078 8.05001 0.330074 7.87 0.470074 7.72C0.620075 7.53 0.780085 7.36 0.950085 7.19C1.02009 7.12 1.07008 7.07 1.13008 7L1.19008 6.95C1.19008 6.95 1.28008 6.86001 1.32008 6.82001L3.39009 4.75L3.46006 4.67999L3.49006 4.64999L3.52006 4.62L3.56007 4.58L3.60008 4.53999C3.66008 4.47999 3.71008 4.43001 3.79008 4.35001L5.05006 3.09L5.07008 3.07001L6.07008 2.07001L6.09007 2.05C6.23007 1.91 6.33007 1.81001 6.43007 1.71001C6.53007 1.61001 6.62008 1.52 6.73008 1.41L6.76008 1.37C6.82008 1.31 6.82007 1.29999 6.84007 1.28999C7.15007 0.979993 7.51007 0.720004 7.90007 0.520004C8.29007 0.330004 8.71008 0.190001 9.13008 0.110001C9.52008 0.0500006 9.92007 0.00999451 10.3101 0.00999451C10.4801 -5.49294e-06 10.6301 0 10.8201 0H18.7201C18.8801 0 19.0401 0 19.2301 0C19.6301 0 20.0301 0.0400006 20.4301 0.110001C20.8601 0.180001 21.2701 0.320004 21.6501 0.520004C22.0401 0.720004 22.4001 0.979993 22.7101 1.28999C23.0201 1.59999 23.2801 1.96001 23.4801 2.35001C23.6701 2.74001 23.8101 3.15 23.8801 3.58C23.9401 3.97 23.9801 4.36999 23.9801 4.75999V4.84C23.9801 4.84 23.9801 4.85999 23.9801 4.87V12.88C23.9801 13.03 23.9801 13.11 23.9801 13.2C23.9801 13.61 23.9401 14.01 23.8801 14.41C23.8101 14.84 23.6701 15.26 23.4701 15.65C23.2701 16.04 23.0101 16.4 22.7001 16.71C22.3901 17.02 22.0301 17.28 21.6301 17.48C21.2401 17.68 20.8201 17.82 20.3901 17.89C19.9901 17.96 19.5901 17.99 19.1901 18C18.9901 18 18.8301 18 18.6701 18H11.2401H11.2301ZM10.8301 1.34C10.6701 1.34 10.5101 1.34 10.3401 1.34C10.0101 1.34 9.68008 1.36999 9.35008 1.42999C9.05008 1.47999 8.77007 1.58001 8.50007 1.71001C8.23007 1.85001 7.99007 2.02 7.78007 2.23V2.25L7.75007 2.28L7.74006 2.3C7.70006 2.35 7.69009 2.36 7.67009 2.38C7.57009 2.47 7.48009 2.55999 7.39009 2.64999C7.33009 2.70999 7.27008 2.77 7.19008 2.84L7.14009 2.89999L7.06007 2.98L4.76008 5.28L4.71006 5.33L4.57008 5.46001L4.47007 5.56L4.37007 5.64999L2.31007 7.72L2.17009 7.86L2.09007 7.94L2.01008 8.02L1.94008 8.10001C1.79008 8.24001 1.66007 8.4 1.53007 8.55L1.49006 8.60001C1.49006 8.60001 1.43008 8.68 1.41008 8.72C1.36008 8.9 1.36008 9.07999 1.41008 9.25999C1.43008 9.29999 1.46006 9.34 1.49006 9.38L1.53007 9.42999C1.66007 9.59999 1.81006 9.74999 1.96006 9.89999C2.00006 9.94999 2.05006 10 2.11006 10.05L2.21006 10.15L2.26008 10.2L2.29008 10.23L2.31007 10.25L4.38008 12.32C4.48008 12.42 4.52006 12.46 4.58006 12.51L4.71006 12.64L4.76008 12.7L7.06007 15L7.36006 15.3H7.37007L7.40007 15.34C7.52007 15.46 7.59009 15.53 7.67009 15.61C7.67009 15.61 7.69674 15.6367 7.75007 15.69H7.76008L7.81007 15.76C8.02007 15.97 8.26006 16.14 8.52006 16.28C8.79006 16.41 9.07007 16.51 9.37007 16.56C9.70007 16.61 10.0301 16.64 10.3701 16.65C10.5401 16.65 10.6901 16.65 10.8601 16.65H18.6901C18.8301 16.65 18.9601 16.65 19.1901 16.65C19.5201 16.65 19.8601 16.62 20.1901 16.56C20.4901 16.51 20.7801 16.41 21.0501 16.28C21.3201 16.14 21.5601 15.97 21.7701 15.75C21.9801 15.54 22.1601 15.29 22.3001 15.03C22.4401 14.76 22.5301 14.47 22.5801 14.17C22.6301 13.83 22.6601 13.49 22.6701 13.15V4.78C22.6701 4.45 22.6401 4.11999 22.5801 3.78999C22.5301 3.48999 22.4401 3.21 22.3001 2.94C22.1601 2.67 21.9901 2.43 21.7801 2.22C21.5701 2.01 21.3301 1.84 21.0701 1.7C20.8001 1.56 20.5201 1.47 20.2301 1.42C19.9001 1.37 19.5701 1.34 19.2301 1.33C19.1001 1.33 18.9401 1.33 18.7401 1.33H11.4501C11.1501 1.33 11.0201 1.33 10.8501 1.33L10.8301 1.34ZM17.2101 12.53L14.5101 9.84L11.8201 12.53C11.7701 12.58 11.7001 12.62 11.6301 12.65C11.3201 12.77 10.9701 12.62 10.8501 12.32C10.7601 12.1 10.8101 11.85 10.9801 11.68C10.9801 11.68 11.0501 11.62 11.0801 11.6L13.6701 9.00999L10.9701 6.31C10.7501 6.05 10.7801 5.67001 11.0201 5.46001C11.2501 5.26001 11.5901 5.26001 11.8201 5.46001C11.8201 5.46001 11.8701 5.52 11.9001 5.55L14.5101 8.16L17.1301 5.53999C17.3201 5.26999 17.7001 5.20999 17.9701 5.39999C18.1301 5.50999 18.2201 5.69 18.2201 5.88C18.2201 6.04 18.1601 6.19 18.0501 6.3L15.3501 9.00999L17.9601 11.61C17.9601 11.61 18.0201 11.66 18.0501 11.69C18.2701 11.94 18.2401 12.32 17.9901 12.54C17.7701 12.73 17.4301 12.73 17.2101 12.54V12.53Z" fill="#434040"/>
</svg>
